REM DIRINDEX 1\6,1\2\7,1\2\8,1\2\9,1\3\10,1\3\11,1\4\12,1\4\13,1\4\14,1\5\15,1\5\16,1\5\17
REM DIRNAME folder01,folder02,folder03,folder04,folder05,folder06,folder07,folder08,folder09,folder10,folder11,folder12,folder13,folder14,folder15,folder16,folder17
TITLE ""
FILE "P2Q_t2_1015-1032.mp3" MP3
  TRACK 01 AUDIO
    TITLE "7:cjc040_6879"
    INDEX 01 00:00:00
  TRACK 02 AUDIO
    TITLE "0:"
    INDEX 01 00:00:72
  TRACK 03 AUDIO
    TITLE "8:cjc040_6880"
    INDEX 01 00:01:50
  TRACK 04 AUDIO
    TITLE "0:"
    INDEX 01 00:02:53
  TRACK 05 AUDIO
    TITLE "9:cjc040_6881"
    INDEX 01 00:03:29
  TRACK 06 AUDIO
    TITLE "0:"
    INDEX 01 00:04:42
  TRACK 07 AUDIO
    TITLE "7:cjc040_6882"
    INDEX 01 00:06:26
  TRACK 08 AUDIO
    TITLE "0:"
    INDEX 01 00:07:39
  TRACK 09 AUDIO
    TITLE "8:cjc040_6883"
    INDEX 01 00:08:23
  TRACK 10 AUDIO
    TITLE "0:"
    INDEX 01 00:09:45
  TRACK 11 AUDIO
    TITLE "9:cjc040_6884"
    INDEX 01 00:10:19
  TRACK 12 AUDIO
    TITLE "0:"
    INDEX 01 00:11:33
  TRACK 13 AUDIO
    TITLE "7:cjc040_6885"
    INDEX 01 00:13:22
  TRACK 14 AUDIO
    TITLE "0:"
    INDEX 01 00:14:35
  TRACK 15 AUDIO
    TITLE "8:cjc040_6886"
    INDEX 01 00:15:11
  TRACK 16 AUDIO
    TITLE "0:"
    INDEX 01 00:18:37
  TRACK 17 AUDIO
    TITLE "9:cjc040_6887"
    INDEX 01 00:19:15
  TRACK 18 AUDIO
    TITLE "0:"
    INDEX 01 00:20:28
  TRACK 19 AUDIO
    TITLE "7:cjc040_6888"
    INDEX 01 00:22:17
  TRACK 20 AUDIO
    TITLE "0:"
    INDEX 01 00:23:24
  TRACK 21 AUDIO
    TITLE "8:cjc040_6889"
    INDEX 01 00:24:02
  TRACK 22 AUDIO
    TITLE "0:"
    INDEX 01 00:27:00
  TRACK 23 AUDIO
    TITLE "9:cjc040_6890"
    INDEX 01 00:27:51
  TRACK 24 AUDIO
    TITLE "0:"
    INDEX 01 00:28:62
  TRACK 25 AUDIO
    TITLE "7:cjc040_6891"
    INDEX 01 00:30:44
  TRACK 26 AUDIO
    TITLE "0:"
    INDEX 01 00:31:57
  TRACK 27 AUDIO
    TITLE "8:cjc040_6892"
    INDEX 01 00:32:35
  TRACK 28 AUDIO
    TITLE "0:"
    INDEX 01 00:35:39
  TRACK 29 AUDIO
    TITLE "9:cjc040_6893"
    INDEX 01 00:36:17
  TRACK 30 AUDIO
    TITLE "0:"
    INDEX 01 00:37:32
  TRACK 31 AUDIO
    TITLE "7:cjc040_6894"
    INDEX 01 00:39:15
  TRACK 32 AUDIO
    TITLE "0:"
    INDEX 01 00:40:38
  TRACK 33 AUDIO
    TITLE "8:cjc040_6895"
    INDEX 01 00:41:16
  TRACK 34 AUDIO
    TITLE "0:"
    INDEX 01 00:42:39
  TRACK 35 AUDIO
    TITLE "9:cjc040_6896"
    INDEX 01 00:43:19
  TRACK 36 AUDIO
    TITLE "0:"
    INDEX 01 00:44:42
  TRACK 37 AUDIO
    TITLE "7:cjc040_6897"
    INDEX 01 00:46:23
  TRACK 38 AUDIO
    TITLE "0:"
    INDEX 01 00:47:34
  TRACK 39 AUDIO
    TITLE "8:cjc040_6898"
    INDEX 01 00:48:14
  TRACK 40 AUDIO
    TITLE "0:"
    INDEX 01 00:52:24
  TRACK 41 AUDIO
    TITLE "9:cjc040_6899"
    INDEX 01 00:53:02
  TRACK 42 AUDIO
    TITLE "0:"
    INDEX 01 00:54:13
  TRACK 43 AUDIO
    TITLE "7:cjc040_6900"
    INDEX 01 00:55:69
  TRACK 44 AUDIO
    TITLE "0:"
    INDEX 01 00:57:17
  TRACK 45 AUDIO
    TITLE "8:cjc040_6901"
    INDEX 01 00:57:66
  TRACK 46 AUDIO
    TITLE "0:"
    INDEX 01 01:01:27
  TRACK 47 AUDIO
    TITLE "9:cjc040_6902"
    INDEX 01 01:01:74
  TRACK 48 AUDIO
    TITLE "0:"
    INDEX 01 01:03:18
  TRACK 49 AUDIO
    TITLE "7:cjc040_6903"
    INDEX 01 01:05:03
  TRACK 50 AUDIO
    TITLE "0:"
    INDEX 01 01:06:08
  TRACK 51 AUDIO
    TITLE "8:cjc040_6904"
    INDEX 01 01:06:61
  TRACK 52 AUDIO
    TITLE "0:"
    INDEX 01 01:08:01
  TRACK 53 AUDIO
    TITLE "9:cjc040_6905"
    INDEX 01 01:08:48
  TRACK 54 AUDIO
    TITLE "0:"
    INDEX 01 01:09:56
  TRACK 55 AUDIO
    TITLE "7:cjc040_6906"
    INDEX 01 01:11:31
  TRACK 56 AUDIO
    TITLE "0:"
    INDEX 01 01:12:40
  TRACK 57 AUDIO
    TITLE "8:cjc040_6907"
    INDEX 01 01:13:18
  TRACK 58 AUDIO
    TITLE "0:"
    INDEX 01 01:15:48
  TRACK 59 AUDIO
    TITLE "9:cjc040_6908"
    INDEX 01 01:16:24
  TRACK 60 AUDIO
    TITLE "0:"
    INDEX 01 01:17:32
  TRACK 61 AUDIO
    TITLE "7:cjc040_6909"
    INDEX 01 01:19:13
  TRACK 62 AUDIO
    TITLE "0:"
    INDEX 01 01:20:36
  TRACK 63 AUDIO
    TITLE "8:cjc040_6910"
    INDEX 01 01:21:14
  TRACK 64 AUDIO
    TITLE "0:"
    INDEX 01 01:24:02
  TRACK 65 AUDIO
    TITLE "9:cjc040_6911"
    INDEX 01 01:24:55
  TRACK 66 AUDIO
    TITLE "0:"
    INDEX 01 01:26:03
  TRACK 67 AUDIO
    TITLE "7:cjc040_6912"
    INDEX 01 01:27:61
  TRACK 68 AUDIO
    TITLE "0:"
    INDEX 01 01:29:05
  TRACK 69 AUDIO
    TITLE "8:cjc040_6913"
    INDEX 01 01:29:54
  TRACK 70 AUDIO
    TITLE "0:"
    INDEX 01 01:32:00
  TRACK 71 AUDIO
    TITLE "9:cjc040_6914"
    INDEX 01 01:32:51
  TRACK 72 AUDIO
    TITLE "0:"
    INDEX 01 01:33:70
  TRACK 73 AUDIO
    TITLE "7:cjc040_6915"
    INDEX 01 01:35:45
  TRACK 74 AUDIO
    TITLE "0:"
    INDEX 01 01:36:41
  TRACK 75 AUDIO
    TITLE "8:cjc040_6916"
    INDEX 01 01:37:24
  TRACK 76 AUDIO
    TITLE "0:"
    INDEX 01 01:39:31
  TRACK 77 AUDIO
    TITLE "9:cjc040_6917"
    INDEX 01 01:40:05
  TRACK 78 AUDIO
    TITLE "0:"
    INDEX 01 01:41:05
  TRACK 79 AUDIO
    TITLE "7:cjc040_6918"
    INDEX 01 01:42:67
  TRACK 80 AUDIO
    TITLE "0:"
    INDEX 01 01:43:74
  TRACK 81 AUDIO
    TITLE "8:cjc040_6919"
    INDEX 01 01:44:58
  TRACK 82 AUDIO
    TITLE "0:"
    INDEX 01 01:48:48
  TRACK 83 AUDIO
    TITLE "9:cjc040_6920"
    INDEX 01 01:49:30
  TRACK 84 AUDIO
    TITLE "0:"
    INDEX 01 01:50:39
  TRACK 85 AUDIO
    TITLE "7:cjc040_6921"
    INDEX 01 01:52:22
  TRACK 86 AUDIO
    TITLE "0:"
    INDEX 01 01:53:35
  TRACK 87 AUDIO
    TITLE "8:cjc040_6922"
    INDEX 01 01:54:13
  TRACK 88 AUDIO
    TITLE "0:"
    INDEX 01 01:55:54
  TRACK 89 AUDIO
    TITLE "9:cjc040_6923"
    INDEX 01 01:56:32
  TRACK 90 AUDIO
    TITLE "0:"
    INDEX 01 01:57:47
  TRACK 91 AUDIO
    TITLE "7:cjc040_6924"
    INDEX 01 01:59:38
  TRACK 92 AUDIO
    TITLE "0:"
    INDEX 01 02:00:61
  TRACK 93 AUDIO
    TITLE "8:cjc040_6925"
    INDEX 01 02:01:43
  TRACK 94 AUDIO
    TITLE "0:"
    INDEX 01 02:04:29
  TRACK 95 AUDIO
    TITLE "9:cjc040_6926"
    INDEX 01 02:05:05
  TRACK 96 AUDIO
    TITLE "0:"
    INDEX 01 02:06:34
  TRACK 97 AUDIO
    TITLE "7:cjc040_6927"
    INDEX 01 02:08:17
  TRACK 98 AUDIO
    TITLE "0:"
    INDEX 01 02:09:28
  TRACK 99 AUDIO
    TITLE "8:cjc040_6928"
    INDEX 01 02:10:10
  TRACK 100 AUDIO
    TITLE "0:"
    INDEX 01 02:12:62
  TRACK 101 AUDIO
    TITLE "9:cjc040_6929"
    INDEX 01 02:13:34
  TRACK 102 AUDIO
    TITLE "0:"
    INDEX 01 02:14:51
  TRACK 103 AUDIO
    TITLE "7:cjc040_6930"
    INDEX 01 02:16:36
  TRACK 104 AUDIO
    TITLE "0:"
    INDEX 01 02:17:55
  TRACK 105 AUDIO
    TITLE "8:cjc040_6931"
    INDEX 01 02:18:31
  TRACK 106 AUDIO
    TITLE "0:"
    INDEX 01 02:19:66
  TRACK 107 AUDIO
    TITLE "9:cjc040_6932"
    INDEX 01 02:20:44
  TRACK 108 AUDIO
    TITLE "0:"
    INDEX 01 02:21:67
